<svg width="444" height="260" viewBox="0 0 444 260" fill="none" xmlns="http://www.w3.org/2000/svg">
<g clip-path="url(#clip0_172_168)">
<path d="M222 110C222.408 110 222.799 110.162 223.088 110.451C223.376 110.739 223.538 111.13 223.538 111.538V128.462H240.462C240.87 128.462 241.261 128.624 241.549 128.912C241.838 129.201 242 129.592 242 130C242 130.408 241.838 130.799 241.549 131.088C241.261 131.376 240.87 131.538 240.462 131.538H223.538V148.462C223.538 148.87 223.376 149.261 223.088 149.549C222.799 149.838 222.408 150 222 150C221.592 150 221.201 149.838 220.912 149.549C220.624 149.261 220.462 148.87 220.462 148.462V131.538H203.538C203.13 131.538 202.739 131.376 202.451 131.088C202.162 130.799 202 130.408 202 130C202 129.592 202.162 129.201 202.451 128.912C202.739 128.624 203.13 128.462 203.538 128.462H220.462V111.538C220.462 111.13 220.624 110.739 220.912 110.451C221.201 110.162 221.592 110 222 110Z" fill="#C1C3C7"/>
</g>
<defs>
<clipPath id="clip0_172_168">
<rect width="40" height="40" fill="white" transform="translate(202 110)"/>
</clipPath>
</defs>
</svg>
